<svg width="478" height="88" viewBox="0 0 478 88" fill="none" xmlns="http://www.w3.org/2000/svg">
<circle cx="141.481" cy="43.9225" r="43.294" fill="#B2B2B2"/>
<circle cx="43.9313" cy="44.2432" r="43.294" fill="#B2B2B2"/>
<circle cx="66.0185" cy="44.2432" r="43.294" fill="#1E1E1E"/>
<circle cx="119.254" cy="44.2432" r="43.294" fill="#1E1E1E"/>
<circle cx="112.939" cy="44.2432" r="37.2008" fill="#7C7C7C"/>
<circle cx="71.8901" cy="44.2432" r="37.2008" fill="#7C7C7C"/>
<circle cx="92.4147" cy="44.2432" r="37.2008" fill="#1E1E1E"/>
<path d="M121.277 44.2432C121.277 60.1836 108.355 73.1059 92.4147 73.1059C76.4742 73.1059 63.552 60.1836 63.552 44.2432C63.552 28.3028 76.4742 15.3805 92.4147 15.3805C108.355 15.3805 121.277 28.3028 121.277 44.2432ZM78.7325 44.2432C78.7325 51.7996 84.8582 57.9253 92.4147 57.9253C99.9711 57.9253 106.097 51.7996 106.097 44.2432C106.097 36.6867 99.9711 30.561 92.4147 30.561C84.8582 30.561 78.7325 36.6867 78.7325 44.2432Z" fill="#333333"/>
<path d="M222.542 42.334C219.376 42.334 216.47 41.5996 213.834 40.1257C211.194 38.6569 209.095 36.5996 207.542 33.959C205.985 31.3236 205.209 28.3548 205.209 25.0632C205.209 21.7611 205.985 18.8027 207.542 16.1882C209.095 13.5632 211.194 11.5163 213.834 10.0423C216.47 8.57357 219.376 7.83398 222.542 7.83398C225.709 7.83398 228.61 8.57357 231.251 10.0423C233.886 11.5163 235.964 13.5632 237.48 16.1882C239.006 18.8027 239.772 21.7611 239.772 25.0632C239.772 28.3548 239.001 31.3236 237.459 33.959C235.928 36.5996 233.855 38.6569 231.23 40.1257C228.605 41.5996 225.709 42.334 222.542 42.334ZM222.542 34.8548C225.22 34.8548 227.365 33.959 228.98 32.1673C230.605 30.3757 231.417 28.0111 231.417 25.0632C231.417 22.0788 230.605 19.7038 228.98 17.9382C227.365 16.1621 225.22 15.2715 222.542 15.2715C219.819 15.2715 217.647 16.1569 216.022 17.9173C214.407 19.6673 213.605 22.0527 213.605 25.0632C213.605 28.0371 214.407 30.4121 216.022 32.1882C217.647 33.9694 219.819 34.8548 222.542 34.8548Z" fill="white"/>
<path d="M251.341 19.0007C252.133 17.7663 253.227 16.7663 254.633 16.0007C256.05 15.2246 257.701 14.834 259.591 14.834C261.8 14.834 263.8 15.3965 265.591 16.5215C267.383 17.6361 268.8 19.2298 269.841 21.3132C270.883 23.3965 271.404 25.8132 271.404 28.5632C271.404 31.3132 270.883 33.7402 269.841 35.834C268.8 37.9329 267.383 39.5527 265.591 40.6882C263.8 41.8132 261.8 42.3757 259.591 42.3757C257.727 42.3757 256.081 41.9954 254.654 41.2298C253.237 40.4694 252.133 39.4746 251.341 38.2507V54.7715H243.133V15.209H251.341V19.0007ZM263.05 28.5632C263.05 26.5111 262.477 24.8965 261.341 23.7298C260.201 22.5632 258.805 21.9798 257.154 21.9798C255.513 21.9798 254.123 22.5788 252.987 23.7715C251.862 24.9538 251.3 26.5632 251.3 28.6048C251.3 30.6621 251.862 32.2819 252.987 33.459C254.123 34.6413 255.513 35.2298 257.154 35.2298C258.779 35.2298 260.164 34.6361 261.321 33.4382C262.472 32.2298 263.05 30.6048 263.05 28.5632Z" fill="white"/>
<path d="M289.442 35.0423V42.0007H285.275C282.301 42.0007 279.983 41.2715 278.317 39.8132C276.65 38.3548 275.817 35.9798 275.817 32.6882V22.0423H272.546V15.209H275.817V8.68817H284.025V15.209H289.4V22.0423H284.025V32.7923C284.025 33.584 284.213 34.1621 284.588 34.5215C284.973 34.8705 285.619 35.0423 286.525 35.0423H289.442Z" fill="white"/>
<path d="M305.001 42.3757C302.376 42.3757 300.011 41.8236 297.917 40.709C295.818 39.584 294.173 37.9902 292.98 35.9173C291.782 33.834 291.188 31.3965 291.188 28.6048C291.188 25.8548 291.792 23.4329 293.001 21.334C294.219 19.2402 295.886 17.6361 298.001 16.5215C300.11 15.3965 302.48 14.834 305.105 14.834C307.73 14.834 310.094 15.3965 312.209 16.5215C314.318 17.6361 315.98 19.2402 317.188 21.334C318.407 23.4329 319.021 25.8548 319.021 28.6048C319.021 31.3548 318.402 33.7819 317.167 35.8757C315.928 37.9746 314.251 39.584 312.126 40.709C310.001 41.8236 307.626 42.3757 305.001 42.3757ZM305.001 35.2715C306.568 35.2715 307.902 34.7038 309.001 33.5632C310.11 32.4121 310.667 30.7611 310.667 28.6048C310.667 26.4694 310.131 24.8236 309.063 23.6673C307.99 22.5163 306.673 21.9382 305.105 21.9382C303.49 21.9382 302.157 22.5111 301.105 23.6465C300.048 24.7871 299.521 26.4382 299.521 28.6048C299.521 30.7611 300.042 32.4121 301.084 33.5632C302.126 34.7038 303.428 35.2715 305.001 35.2715Z" fill="white"/>
<path d="M356.356 14.9382C359.689 14.9382 362.335 15.9486 364.293 17.959C366.262 19.9746 367.252 22.7715 367.252 26.3548V42.0007H359.106V27.459C359.106 25.7246 358.648 24.3913 357.731 23.459C356.814 22.5163 355.554 22.0423 353.96 22.0423C352.361 22.0423 351.106 22.5163 350.189 23.459C349.283 24.3913 348.835 25.7246 348.835 27.459V42.0007H340.668V27.459C340.668 25.7246 340.21 24.3913 339.293 23.459C338.387 22.5163 337.132 22.0423 335.523 22.0423C333.924 22.0423 332.668 22.5163 331.752 23.459C330.845 24.3913 330.398 25.7246 330.398 27.459V42.0007H322.189V15.209H330.398V18.584C331.231 17.459 332.314 16.5736 333.648 15.9173C334.991 15.2663 336.512 14.9382 338.21 14.9382C340.236 14.9382 342.043 15.3705 343.627 16.2298C345.21 17.0944 346.444 18.3236 347.335 19.9173C348.262 18.4486 349.528 17.2507 351.127 16.334C352.72 15.4069 354.465 14.9382 356.356 14.9382Z" fill="white"/>
<path d="M384.009 42.3757C381.384 42.3757 379.019 41.8236 376.925 40.709C374.827 39.584 373.181 37.9902 371.988 35.9173C370.79 33.834 370.196 31.3965 370.196 28.6048C370.196 25.8548 370.8 23.4329 372.009 21.334C373.228 19.2402 374.894 17.6361 377.009 16.5215C379.118 15.3965 381.488 14.834 384.113 14.834C386.738 14.834 389.103 15.3965 391.217 16.5215C393.327 17.6361 394.988 19.2402 396.196 21.334C397.415 23.4329 398.03 25.8548 398.03 28.6048C398.03 31.3548 397.41 33.7819 396.175 35.8757C394.936 37.9746 393.259 39.584 391.134 40.709C389.009 41.8236 386.634 42.3757 384.009 42.3757ZM384.009 35.2715C385.577 35.2715 386.91 34.7038 388.009 33.5632C389.118 32.4121 389.675 30.7611 389.675 28.6048C389.675 26.4694 389.139 24.8236 388.071 23.6673C386.998 22.5163 385.681 21.9382 384.113 21.9382C382.498 21.9382 381.165 22.5111 380.113 23.6465C379.056 24.7871 378.53 26.4382 378.53 28.6048C378.53 30.7611 379.05 32.4121 380.092 33.5632C381.134 34.7038 382.436 35.2715 384.009 35.2715Z" fill="white"/>
<path d="M220.813 62.4122V77.2455H218.397V67.0997L213.876 77.2455H212.188L207.647 67.0997V77.2455H205.209V62.4122H207.834L213.042 74.0372L218.209 62.4122H220.813Z" fill="white"/>
<path d="M231.091 77.4331C229.383 77.4331 227.992 76.881 226.925 75.7664C225.867 74.657 225.341 73.1831 225.341 71.3497C225.341 69.5164 225.883 68.0529 226.966 66.9539C228.05 65.8602 229.446 65.3081 231.154 65.3081C232.862 65.3081 234.248 65.8393 235.321 66.8914C236.388 67.9487 236.925 69.3289 236.925 71.0372C236.925 71.4539 236.894 71.8393 236.841 72.1831H227.841C227.894 73.1727 228.222 73.9539 228.821 74.5372C229.43 75.1102 230.185 75.3914 231.091 75.3914C232.425 75.3914 233.362 74.8445 233.904 73.7456H236.508C236.159 74.8289 235.513 75.7195 234.571 76.4122C233.638 77.0945 232.477 77.4331 231.091 77.4331ZM234.383 70.5164C234.367 69.5581 234.05 68.7977 233.425 68.2247C232.8 67.6414 232.034 67.3497 231.133 67.3497C230.242 67.3497 229.492 67.6414 228.883 68.2247C228.284 68.7977 227.946 69.5581 227.862 70.5164H234.383Z" fill="white"/>
<path d="M249.197 74.2456C249.905 73.5268 250.259 72.5581 250.259 71.3497C250.259 70.1414 249.905 69.1831 249.197 68.4747C248.488 67.7664 247.645 67.4122 246.676 67.4122C245.718 67.4122 244.884 67.7612 244.176 68.4539C243.478 69.1518 243.134 70.0997 243.134 71.3081C243.134 72.5164 243.478 73.4903 244.176 74.2247C244.884 74.9643 245.718 75.3289 246.676 75.3289C247.645 75.3289 248.488 74.9695 249.197 74.2456ZM246.176 77.4331C244.603 77.4331 243.285 76.8653 242.218 75.7247C241.16 74.5737 240.634 73.1101 240.634 71.3289C240.634 69.5372 241.16 68.0893 242.218 66.9747C243.27 65.8653 244.593 65.3081 246.176 65.3081C247.103 65.3081 247.916 65.5164 248.613 65.9331C249.322 66.3497 249.869 66.9018 250.259 67.5789V61.4539H252.697V77.2456H250.259V75.0581C249.853 75.782 249.306 76.3601 248.613 76.7872C247.916 77.2195 247.103 77.4331 246.176 77.4331Z" fill="white"/>
<path d="M260.811 62.3914C260.811 62.8237 260.655 63.1935 260.353 63.4956C260.061 63.7872 259.692 63.9331 259.249 63.9331C258.817 63.9331 258.447 63.7872 258.145 63.4956C257.853 63.1935 257.707 62.8237 257.707 62.3914C257.707 61.9487 257.853 61.5789 258.145 61.2872C258.447 60.9851 258.817 60.8289 259.249 60.8289C259.692 60.8289 260.061 60.9851 260.353 61.2872C260.655 61.5789 260.811 61.9487 260.811 62.3914ZM258.041 77.2456V65.4956H260.478V77.2456H258.041Z" fill="white"/>
<path d="M270.742 77.4331C269.034 77.4331 267.643 76.881 266.575 75.7664C265.518 74.657 264.992 73.1935 264.992 71.3706C264.992 69.5372 265.523 68.0737 266.596 66.9747C267.68 65.8654 269.06 65.3081 270.742 65.3081C272.169 65.3081 273.351 65.6518 274.284 66.3289C275.211 66.9956 275.836 67.9539 276.159 69.2039H273.555C273.107 67.9695 272.169 67.3497 270.742 67.3497C269.753 67.3497 268.961 67.7039 268.367 68.4122C267.784 69.1102 267.492 70.0945 267.492 71.3706C267.492 72.6362 267.784 73.6206 268.367 74.3289C268.961 75.0372 269.753 75.3914 270.742 75.3914C272.159 75.3914 273.096 74.7768 273.555 73.5372H276.159C275.825 74.7352 275.185 75.6831 274.242 76.3914C273.31 77.0893 272.143 77.4331 270.742 77.4331Z" fill="white"/>
<path d="M288.485 74.2456C289.193 73.5268 289.547 72.5581 289.547 71.3497C289.547 70.1414 289.193 69.1831 288.485 68.4747C287.777 67.7664 286.933 67.4122 285.964 67.4122C285.006 67.4122 284.172 67.7612 283.464 68.4539C282.766 69.1518 282.422 70.0997 282.422 71.3081C282.422 72.5164 282.766 73.4904 283.464 74.2247C284.172 74.9643 285.006 75.3289 285.964 75.3289C286.933 75.3289 287.777 74.9695 288.485 74.2456ZM285.464 77.4331C283.891 77.4331 282.573 76.8654 281.506 75.7247C280.448 74.5737 279.922 73.1102 279.922 71.3289C279.922 69.5372 280.448 68.0893 281.506 66.9747C282.558 65.8654 283.881 65.3081 285.464 65.3081C286.391 65.3081 287.204 65.5164 287.902 65.9331C288.61 66.3497 289.157 66.9018 289.547 67.5789V65.4956H291.985V77.2456H289.547V75.0581C289.141 75.782 288.594 76.3602 287.902 76.7872C287.204 77.2195 286.391 77.4331 285.464 77.4331Z" fill="white"/>
<path d="M297.329 77.2456V61.4539H299.766V77.2456H297.329Z" fill="white"/>
<path d="M312.854 64.308V62.4122H323.208V64.308H319.249V77.2455H316.812V64.308H312.854Z" fill="white"/>
<path d="M332.724 77.4331C331.016 77.4331 329.625 76.881 328.558 75.7664C327.5 74.657 326.974 73.1831 326.974 71.3497C326.974 69.5164 327.516 68.0529 328.599 66.9539C329.683 65.8602 331.079 65.3081 332.787 65.3081C334.495 65.3081 335.881 65.8393 336.954 66.8914C338.021 67.9487 338.558 69.3289 338.558 71.0372C338.558 71.4539 338.527 71.8393 338.474 72.1831H329.474C329.527 73.1727 329.855 73.9539 330.454 74.5372C331.063 75.1102 331.818 75.3914 332.724 75.3914C334.058 75.3914 334.995 74.8445 335.537 73.7456H338.141C337.792 74.8289 337.146 75.7195 336.204 76.4122C335.271 77.0945 334.11 77.4331 332.724 77.4331ZM336.016 70.5164C336 69.5581 335.683 68.7977 335.058 68.2247C334.433 67.6414 333.667 67.3497 332.766 67.3497C331.875 67.3497 331.125 67.6414 330.516 68.2247C329.917 68.7977 329.579 69.5581 329.495 70.5164H336.016Z" fill="white"/>
<path d="M348.017 77.4331C346.309 77.4331 344.918 76.881 343.851 75.7664C342.793 74.657 342.267 73.1935 342.267 71.3706C342.267 69.5372 342.798 68.0737 343.871 66.9747C344.955 65.8654 346.335 65.3081 348.017 65.3081C349.444 65.3081 350.627 65.6518 351.559 66.3289C352.486 66.9956 353.111 67.9539 353.434 69.2039H350.83C350.382 67.9695 349.444 67.3497 348.017 67.3497C347.028 67.3497 346.236 67.7039 345.642 68.4122C345.059 69.1102 344.767 70.0945 344.767 71.3706C344.767 72.6362 345.059 73.6206 345.642 74.3289C346.236 75.0372 347.028 75.3914 348.017 75.3914C349.434 75.3914 350.371 74.7768 350.83 73.5372H353.434C353.101 74.7352 352.46 75.6831 351.517 76.3914C350.585 77.0893 349.418 77.4331 348.017 77.4331Z" fill="white"/>
<path d="M360.448 61.4539V67.3497C361.224 65.9903 362.474 65.3081 364.198 65.3081C365.515 65.3081 366.604 65.756 367.468 66.6414C368.328 67.5164 368.76 68.7403 368.76 70.3081V77.2456H366.343V70.6831C366.343 69.631 366.078 68.8237 365.552 68.2664C365.02 67.6987 364.302 67.4122 363.385 67.4122C362.479 67.4122 361.765 67.6987 361.239 68.2664C360.708 68.8237 360.448 69.631 360.448 70.6831V77.2456H358.01V61.4539H360.448Z" fill="white"/>
<path d="M376.423 65.4956V67.3497C377.199 65.9904 378.449 65.3081 380.173 65.3081C381.491 65.3081 382.579 65.756 383.444 66.6414C384.303 67.5164 384.735 68.7404 384.735 70.3081V77.2456H382.319V70.6831C382.319 69.631 382.053 68.8237 381.527 68.2664C380.996 67.6987 380.277 67.4122 379.36 67.4122C378.454 67.4122 377.741 67.6987 377.215 68.2664C376.683 68.8237 376.423 69.631 376.423 70.6831V77.2456H373.985V65.4956H376.423Z" fill="white"/>
<path d="M397.586 74.3289C398.304 73.6206 398.669 72.6362 398.669 71.3706C398.669 70.0945 398.32 69.1102 397.627 68.4122C396.929 67.7039 396.091 67.3497 395.107 67.3497C394.133 67.3497 393.315 67.7039 392.648 68.4122C391.982 69.1102 391.648 70.0945 391.648 71.3706C391.648 72.6518 391.971 73.6414 392.627 74.3497C393.278 75.0477 394.091 75.3914 395.065 75.3914C396.034 75.3914 396.877 75.0372 397.586 74.3289ZM395.065 77.4331C393.357 77.4331 391.945 76.881 390.836 75.7664C389.721 74.6414 389.169 73.1779 389.169 71.3706C389.169 69.5529 389.737 68.0893 390.877 66.9747C392.028 65.8654 393.461 65.3081 395.169 65.3081C396.877 65.3081 398.299 65.8654 399.44 66.9747C400.575 68.0893 401.148 69.5477 401.148 71.3497C401.148 73.157 400.554 74.6206 399.377 75.7456C398.211 76.8706 396.773 77.4331 395.065 77.4331Z" fill="white"/>
<path d="M405.701 77.2456V61.4539H408.139V77.2456H405.701Z" fill="white"/>
<path d="M421.09 74.3289C421.809 73.6206 422.174 72.6362 422.174 71.3706C422.174 70.0945 421.825 69.1102 421.132 68.4122C420.434 67.7039 419.596 67.3497 418.611 67.3497C417.637 67.3497 416.82 67.7039 416.153 68.4122C415.486 69.1102 415.153 70.0945 415.153 71.3706C415.153 72.6518 415.476 73.6414 416.132 74.3497C416.783 75.0477 417.596 75.3914 418.57 75.3914C419.538 75.3914 420.382 75.0372 421.09 74.3289ZM418.57 77.4331C416.861 77.4331 415.45 76.881 414.34 75.7664C413.226 74.6414 412.674 73.1779 412.674 71.3706C412.674 69.5529 413.241 68.0893 414.382 66.9747C415.533 65.8654 416.965 65.3081 418.674 65.3081C420.382 65.3081 421.804 65.8654 422.945 66.9747C424.08 68.0893 424.653 69.5477 424.653 71.3497C424.653 73.157 424.059 74.6206 422.882 75.7456C421.715 76.8706 420.278 77.4331 418.57 77.4331Z" fill="white"/>
<path d="M433.935 77.4331C432.362 77.4331 431.045 76.8654 429.977 75.7247C428.92 74.5737 428.394 73.1102 428.394 71.3289C428.394 69.5372 428.92 68.0893 429.977 66.9747C431.029 65.8654 432.352 65.3081 433.935 65.3081C434.862 65.3081 435.675 65.5164 436.373 65.9331C437.081 66.3497 437.628 66.9018 438.019 67.5789V65.4956H440.456V77.4331C440.456 79.0841 439.946 80.4331 438.935 81.4747C437.92 82.5268 436.565 83.0581 434.873 83.0581C433.175 83.0581 431.8 82.6831 430.748 81.9331C429.706 81.1831 429.112 80.1675 428.977 78.8914H431.373C431.565 79.5008 431.961 79.9956 432.56 80.3706C433.17 80.7456 433.925 80.9331 434.831 80.9331C435.748 80.9331 436.503 80.631 437.102 80.0372C437.711 79.4383 438.019 78.5685 438.019 77.4331V75.0581C437.612 75.782 437.065 76.3602 436.373 76.7872C435.675 77.2195 434.862 77.4331 433.935 77.4331ZM436.956 74.2456C437.664 73.5268 438.019 72.5581 438.019 71.3497C438.019 70.1414 437.664 69.1831 436.956 68.4747C436.248 67.7664 435.404 67.4122 434.435 67.4122C433.477 67.4122 432.644 67.7612 431.935 68.4539C431.237 69.1518 430.894 70.0997 430.894 71.3081C430.894 72.5164 431.237 73.4904 431.935 74.2247C432.644 74.9643 433.477 75.3289 434.435 75.3289C435.404 75.3289 436.248 74.9695 436.956 74.2456Z" fill="white"/>
<path d="M448.571 62.3914C448.571 62.8237 448.415 63.1935 448.112 63.4956C447.821 63.7872 447.451 63.9331 447.008 63.9331C446.576 63.9331 446.206 63.7872 445.904 63.4956C445.612 63.1935 445.467 62.8237 445.467 62.3914C445.467 61.9487 445.612 61.5789 445.904 61.2872C446.206 60.9851 446.576 60.8289 447.008 60.8289C447.451 60.8289 447.821 60.9851 448.112 61.2872C448.415 61.5789 448.571 61.9487 448.571 62.3914ZM445.8 77.2456V65.4956H448.237V77.2456H445.8Z" fill="white"/>
<path d="M458.501 77.4331C456.793 77.4331 455.402 76.881 454.335 75.7664C453.277 74.657 452.751 73.1831 452.751 71.3497C452.751 69.5164 453.293 68.0529 454.376 66.9539C455.46 65.8602 456.856 65.3081 458.564 65.3081C460.272 65.3081 461.658 65.8393 462.731 66.8914C463.798 67.9487 464.335 69.3289 464.335 71.0372C464.335 71.4539 464.303 71.8393 464.251 72.1831H455.251C455.303 73.1727 455.632 73.9539 456.231 74.5372C456.84 75.1102 457.595 75.3914 458.501 75.3914C459.835 75.3914 460.772 74.8445 461.314 73.7456H463.918C463.569 74.8289 462.923 75.7195 461.981 76.4122C461.048 77.0945 459.887 77.4331 458.501 77.4331ZM461.793 70.5164C461.777 69.5581 461.46 68.7977 460.835 68.2247C460.21 67.6414 459.444 67.3497 458.543 67.3497C457.652 67.3497 456.902 67.6414 456.293 68.2247C455.694 68.7977 455.356 69.5581 455.272 70.5164H461.793Z" fill="white"/>
<path d="M468.315 68.8706C468.315 67.8706 468.732 67.032 469.565 66.3497C470.409 65.657 471.513 65.3081 472.878 65.3081C474.253 65.3081 475.336 65.6518 476.128 66.3289C476.93 66.9956 477.362 67.9122 477.419 69.0789H474.94C474.898 68.4956 474.69 68.0477 474.315 67.7247C473.951 67.3914 473.445 67.2247 472.794 67.2247C472.138 67.2247 471.628 67.3706 471.253 67.6622C470.888 67.9539 470.711 68.3393 470.711 68.8081C470.711 69.282 470.94 69.657 471.398 69.9331C471.867 70.1987 472.445 70.4018 473.128 70.5372C473.805 70.6622 474.482 70.8185 475.148 70.9956C475.826 71.1779 476.404 71.5164 476.878 72.0164C477.346 72.506 477.586 73.157 477.586 73.9747C477.586 75.006 477.154 75.8393 476.294 76.4747C475.43 77.1154 474.32 77.4331 472.961 77.4331C471.612 77.4331 470.513 77.1102 469.669 76.4539C468.836 75.8029 468.378 74.8706 468.294 73.6622H470.815C470.857 74.2456 471.065 74.7039 471.44 75.0372C471.826 75.3602 472.357 75.5164 473.023 75.5164C473.69 75.5164 474.216 75.3706 474.607 75.0789C474.992 74.7872 475.19 74.4018 475.19 73.9122C475.19 73.4279 474.951 73.0529 474.482 72.7872C474.008 72.5268 473.43 72.3237 472.753 72.1831C472.086 72.0477 471.409 71.8862 470.732 71.7039C470.065 71.5268 469.492 71.2039 469.023 70.7456C468.549 70.2768 468.315 69.6518 468.315 68.8706Z" fill="white"/>
</svg>
