<svg width="273" height="168" viewBox="0 0 273 168" fill="none" xmlns="http://www.w3.org/2000/svg">
<circle cx="177.981" cy="36.1761" r="36.1151" fill="#B2B2B2"/>
<circle cx="96.6063" cy="36.4436" r="36.1151" fill="#B2B2B2"/>
<circle cx="115.031" cy="36.4436" r="36.1151" fill="#1E1E1E"/>
<circle cx="159.439" cy="36.4436" r="36.1151" fill="#1E1E1E"/>
<circle cx="154.171" cy="36.4436" r="31.0322" fill="#7C7C7C"/>
<circle cx="119.929" cy="36.4436" r="31.0322" fill="#7C7C7C"/>
<circle cx="137.05" cy="36.4436" r="31.0322" fill="#1E1E1E"/>
<path d="M161.127 36.4436C161.127 49.7408 150.347 60.5203 137.05 60.5203C123.753 60.5203 112.973 49.7408 112.973 36.4436C112.973 23.1464 123.753 12.3669 137.05 12.3669C150.347 12.3669 161.127 23.1464 161.127 36.4436ZM125.637 36.4436C125.637 42.747 130.747 47.857 137.05 47.857C143.354 47.857 148.464 42.747 148.464 36.4436C148.464 30.1401 143.354 25.0302 137.05 25.0302C130.747 25.0302 125.637 30.1401 125.637 36.4436Z" fill="#333333"/>
<path d="M57.1792 127.871C54.0125 127.871 51.1062 127.136 48.4708 125.662C45.8302 124.193 43.7312 122.136 42.1792 119.496C40.6219 116.86 39.8458 113.891 39.8458 110.6C39.8458 107.298 40.6219 104.339 42.1792 101.725C43.7312 99.0997 45.8302 97.0529 48.4708 95.5789C51.1062 94.1101 54.0125 93.3706 57.1792 93.3706C60.3458 93.3706 63.2469 94.1101 65.8875 95.5789C68.5229 97.0529 70.601 99.0997 72.1167 101.725C73.6427 104.339 74.4083 107.298 74.4083 110.6C74.4083 113.891 73.6375 116.86 72.0958 119.496C70.5646 122.136 68.4917 124.193 65.8667 125.662C63.2417 127.136 60.3458 127.871 57.1792 127.871ZM57.1792 120.391C59.8562 120.391 62.0021 119.496 63.6167 117.704C65.2417 115.912 66.0542 113.548 66.0542 110.6C66.0542 107.615 65.2417 105.24 63.6167 103.475C62.0021 101.699 59.8562 100.808 57.1792 100.808C54.4552 100.808 52.2833 101.693 50.6583 103.454C49.0437 105.204 48.2417 107.589 48.2417 110.6C48.2417 113.574 49.0437 115.949 50.6583 117.725C52.2833 119.506 54.4552 120.391 57.1792 120.391Z" fill="white"/>
<path d="M85.9781 104.537C86.7698 103.303 87.8635 102.303 89.2698 101.537C90.6864 100.761 92.3375 100.371 94.2281 100.371C96.4364 100.371 98.4364 100.933 100.228 102.058C102.02 103.173 103.436 104.766 104.478 106.85C105.52 108.933 106.041 111.35 106.041 114.1C106.041 116.85 105.52 119.277 104.478 121.371C103.436 123.47 102.02 125.089 100.228 126.225C98.4364 127.35 96.4364 127.912 94.2281 127.912C92.3635 127.912 90.7177 127.532 89.2906 126.766C87.8739 126.006 86.7698 125.011 85.9781 123.787V140.308H77.7698V100.746H85.9781V104.537ZM97.6864 114.1C97.6864 112.048 97.1135 110.433 95.9781 109.266C94.8375 108.1 93.4417 107.516 91.7906 107.516C90.15 107.516 88.7594 108.115 87.6239 109.308C86.4989 110.49 85.9364 112.1 85.9364 114.141C85.9364 116.199 86.4989 117.818 87.6239 118.996C88.7594 120.178 90.15 120.766 91.7906 120.766C93.4156 120.766 94.801 120.173 95.9573 118.975C97.1083 117.766 97.6864 116.141 97.6864 114.1Z" fill="white"/>
<path d="M124.079 120.579V127.537H119.912C116.938 127.537 114.62 126.808 112.954 125.35C111.287 123.891 110.454 121.516 110.454 118.225V107.579H107.183V100.746H110.454V94.2247H118.662V100.746H124.037V107.579H118.662V118.329C118.662 119.121 118.849 119.699 119.224 120.058C119.61 120.407 120.256 120.579 121.162 120.579H124.079Z" fill="white"/>
<path d="M139.637 127.912C137.012 127.912 134.648 127.36 132.554 126.246C130.455 125.121 128.809 123.527 127.616 121.454C126.419 119.371 125.825 116.933 125.825 114.141C125.825 111.391 126.429 108.97 127.637 106.871C128.856 104.777 130.523 103.173 132.637 102.058C134.747 100.933 137.116 100.371 139.741 100.371C142.366 100.371 144.731 100.933 146.846 102.058C148.955 103.173 150.616 104.777 151.825 106.871C153.044 108.97 153.658 111.391 153.658 114.141C153.658 116.891 153.038 119.318 151.804 121.412C150.564 123.511 148.887 125.121 146.762 126.246C144.637 127.36 142.262 127.912 139.637 127.912ZM139.637 120.808C141.205 120.808 142.538 120.24 143.637 119.1C144.747 117.949 145.304 116.298 145.304 114.141C145.304 112.006 144.768 110.36 143.7 109.204C142.627 108.053 141.309 107.475 139.741 107.475C138.127 107.475 136.794 108.048 135.741 109.183C134.684 110.324 134.158 111.975 134.158 114.141C134.158 116.298 134.679 117.949 135.721 119.1C136.762 120.24 138.064 120.808 139.637 120.808Z" fill="white"/>
<path d="M190.993 100.475C194.326 100.475 196.972 101.485 198.93 103.496C200.899 105.511 201.888 108.308 201.888 111.891V127.537H193.743V112.996C193.743 111.261 193.284 109.928 192.368 108.996C191.451 108.053 190.191 107.579 188.597 107.579C186.998 107.579 185.743 108.053 184.826 108.996C183.92 109.928 183.472 111.261 183.472 112.996V127.537H175.305V112.996C175.305 111.261 174.847 109.928 173.93 108.996C173.024 108.053 171.769 107.579 170.159 107.579C168.56 107.579 167.305 108.053 166.388 108.996C165.482 109.928 165.034 111.261 165.034 112.996V127.537H156.826V100.746H165.034V104.121C165.868 102.996 166.951 102.11 168.284 101.454C169.628 100.803 171.149 100.475 172.847 100.475C174.873 100.475 176.68 100.907 178.263 101.766C179.847 102.631 181.081 103.86 181.972 105.454C182.899 103.985 184.164 102.787 185.763 101.871C187.357 100.943 189.102 100.475 190.993 100.475Z" fill="white"/>
<path d="M218.646 127.912C216.021 127.912 213.656 127.36 211.562 126.246C209.463 125.121 207.817 123.527 206.625 121.454C205.427 119.371 204.833 116.933 204.833 114.141C204.833 111.391 205.437 108.97 206.646 106.871C207.864 104.777 209.531 103.173 211.646 102.058C213.755 100.933 216.125 100.371 218.75 100.371C221.375 100.371 223.739 100.933 225.854 102.058C227.963 103.173 229.625 104.777 230.833 106.871C232.052 108.97 232.666 111.391 232.666 114.141C232.666 116.891 232.047 119.318 230.812 121.412C229.573 123.511 227.896 125.121 225.771 126.246C223.646 127.36 221.271 127.912 218.646 127.912ZM218.646 120.808C220.213 120.808 221.547 120.24 222.646 119.1C223.755 117.949 224.312 116.298 224.312 114.141C224.312 112.006 223.776 110.36 222.708 109.204C221.635 108.053 220.317 107.475 218.75 107.475C217.135 107.475 215.802 108.048 214.75 109.183C213.692 110.324 213.166 111.975 213.166 114.141C213.166 116.298 213.687 117.949 214.729 119.1C215.771 120.24 217.073 120.808 218.646 120.808Z" fill="white"/>
<path d="M15.8395 146.897V161.73H13.4229V151.584L8.90202 161.73H7.21452L2.67285 151.584V161.73H0.235352V146.897H2.86035L8.06869 158.522L13.2354 146.897H15.8395Z" fill="white"/>
<path d="M26.1177 161.917C24.4093 161.917 23.0187 161.365 21.951 160.251C20.8937 159.141 20.3677 157.667 20.3677 155.834C20.3677 154.001 20.9093 152.537 21.9927 151.438C23.076 150.345 24.4718 149.792 26.1802 149.792C27.8885 149.792 29.2739 150.324 30.3468 151.376C31.4146 152.433 31.951 153.813 31.951 155.522C31.951 155.938 31.9198 156.324 31.8677 156.667H22.8677C22.9198 157.657 23.2479 158.438 23.8468 159.022C24.4562 159.595 25.2114 159.876 26.1177 159.876C27.451 159.876 28.3885 159.329 28.9302 158.23H31.5343C31.1854 159.313 30.5396 160.204 29.5968 160.897C28.6646 161.579 27.5031 161.917 26.1177 161.917ZM29.4093 155.001C29.3937 154.042 29.076 153.282 28.451 152.709C27.826 152.126 27.0604 151.834 26.1593 151.834C25.2687 151.834 24.5187 152.126 23.9093 152.709C23.3104 153.282 22.9718 154.042 22.8885 155.001H29.4093Z" fill="white"/>
<path d="M44.223 158.73C44.9314 158.011 45.2855 157.042 45.2855 155.834C45.2855 154.626 44.9314 153.667 44.223 152.959C43.5147 152.251 42.6709 151.897 41.7022 151.897C40.7439 151.897 39.9105 152.246 39.2022 152.938C38.5043 153.636 38.1605 154.584 38.1605 155.792C38.1605 157.001 38.5043 157.975 39.2022 158.709C39.9105 159.449 40.7439 159.813 41.7022 159.813C42.6709 159.813 43.5147 159.454 44.223 158.73ZM41.2022 161.917C39.6293 161.917 38.3116 161.35 37.2439 160.209C36.1866 159.058 35.6605 157.594 35.6605 155.813C35.6605 154.022 36.1866 152.574 37.2439 151.459C38.2959 150.35 39.6189 149.792 41.2022 149.792C42.1293 149.792 42.9418 150.001 43.6397 150.417C44.348 150.834 44.8949 151.386 45.2855 152.063V145.938H47.723V161.73H45.2855V159.542C44.8793 160.266 44.3324 160.844 43.6397 161.272C42.9418 161.704 42.1293 161.917 41.2022 161.917Z" fill="white"/>
<path d="M55.8377 146.876C55.8377 147.308 55.6814 147.678 55.3794 147.98C55.0877 148.272 54.7179 148.417 54.2752 148.417C53.8429 148.417 53.4731 148.272 53.171 147.98C52.8794 147.678 52.7335 147.308 52.7335 146.876C52.7335 146.433 52.8794 146.063 53.171 145.772C53.4731 145.469 53.8429 145.313 54.2752 145.313C54.7179 145.313 55.0877 145.469 55.3794 145.772C55.6814 146.063 55.8377 146.433 55.8377 146.876ZM53.0669 161.73V149.98H55.5044V161.73H53.0669Z" fill="white"/>
<path d="M65.7683 161.917C64.06 161.917 62.6694 161.365 61.6016 160.251C60.5444 159.141 60.0183 157.678 60.0183 155.855C60.0183 154.022 60.5496 152.558 61.6225 151.459C62.7058 150.35 64.086 149.792 65.7683 149.792C67.1954 149.792 68.3777 150.136 69.31 150.813C70.2371 151.48 70.8621 152.438 71.185 153.688H68.5808C68.1329 152.454 67.1954 151.834 65.7683 151.834C64.7787 151.834 63.9871 152.188 63.3933 152.897C62.81 153.595 62.5183 154.579 62.5183 155.855C62.5183 157.121 62.81 158.105 63.3933 158.813C63.9871 159.522 64.7787 159.876 65.7683 159.876C67.185 159.876 68.1225 159.261 68.5808 158.022H71.185C70.8516 159.22 70.211 160.167 69.2683 160.876C68.336 161.574 67.1694 161.917 65.7683 161.917Z" fill="white"/>
<path d="M83.5111 158.73C84.2194 158.011 84.5736 157.042 84.5736 155.834C84.5736 154.626 84.2194 153.667 83.5111 152.959C82.8028 152.251 81.959 151.897 80.9903 151.897C80.0319 151.897 79.1986 152.246 78.4903 152.938C77.7924 153.636 77.4486 154.584 77.4486 155.792C77.4486 157.001 77.7924 157.975 78.4903 158.709C79.1986 159.449 80.0319 159.813 80.9903 159.813C81.959 159.813 82.8028 159.454 83.5111 158.73ZM80.4903 161.917C78.9174 161.917 77.5996 161.35 76.5319 160.209C75.4746 159.058 74.9486 157.595 74.9486 155.813C74.9486 154.022 75.4746 152.574 76.5319 151.459C77.584 150.35 78.9069 149.792 80.4903 149.792C81.4174 149.792 82.2299 150.001 82.9278 150.417C83.6361 150.834 84.183 151.386 84.5736 152.063V149.98H87.0111V161.73H84.5736V159.542C84.1674 160.266 83.6205 160.845 82.9278 161.272C82.2299 161.704 81.4174 161.917 80.4903 161.917Z" fill="white"/>
<path d="M92.3549 161.73V145.938H94.7924V161.73H92.3549Z" fill="white"/>
<path d="M107.88 148.792V146.897H118.234V148.792H114.276V161.73H111.838V148.792H107.88Z" fill="white"/>
<path d="M127.751 161.917C126.042 161.917 124.652 161.365 123.584 160.251C122.527 159.141 122.001 157.667 122.001 155.834C122.001 154.001 122.542 152.537 123.626 151.438C124.709 150.345 126.105 149.792 127.813 149.792C129.521 149.792 130.907 150.324 131.98 151.376C133.047 152.433 133.584 153.813 133.584 155.522C133.584 155.938 133.553 156.324 133.501 156.667H124.501C124.553 157.657 124.881 158.438 125.48 159.022C126.089 159.595 126.844 159.876 127.751 159.876C129.084 159.876 130.021 159.329 130.563 158.23H133.167C132.818 159.313 132.172 160.204 131.23 160.897C130.297 161.579 129.136 161.917 127.751 161.917ZM131.042 155.001C131.027 154.042 130.709 153.282 130.084 152.709C129.459 152.126 128.693 151.834 127.792 151.834C126.902 151.834 126.152 152.126 125.542 152.709C124.943 153.282 124.605 154.042 124.521 155.001H131.042Z" fill="white"/>
<path d="M143.043 161.917C141.335 161.917 139.944 161.365 138.877 160.251C137.819 159.141 137.293 157.678 137.293 155.855C137.293 154.022 137.825 152.558 138.898 151.459C139.981 150.35 141.361 149.792 143.043 149.792C144.471 149.792 145.653 150.136 146.585 150.813C147.512 151.48 148.137 152.438 148.46 153.688H145.856C145.408 152.454 144.471 151.834 143.043 151.834C142.054 151.834 141.262 152.188 140.668 152.897C140.085 153.595 139.793 154.579 139.793 155.855C139.793 157.121 140.085 158.105 140.668 158.813C141.262 159.522 142.054 159.876 143.043 159.876C144.46 159.876 145.398 159.261 145.856 158.022H148.46C148.127 159.22 147.486 160.167 146.543 160.876C145.611 161.574 144.444 161.917 143.043 161.917Z" fill="white"/>
<path d="M155.474 145.938V151.834C156.25 150.475 157.5 149.792 159.224 149.792C160.541 149.792 161.63 150.24 162.495 151.126C163.354 152.001 163.786 153.225 163.786 154.792V161.73H161.37V155.167C161.37 154.115 161.104 153.308 160.578 152.751C160.047 152.183 159.328 151.897 158.411 151.897C157.505 151.897 156.791 152.183 156.265 152.751C155.734 153.308 155.474 154.115 155.474 155.167V161.73H153.036V145.938H155.474Z" fill="white"/>
<path d="M171.449 149.98V151.834C172.225 150.475 173.475 149.792 175.199 149.792C176.517 149.792 177.605 150.24 178.47 151.126C179.329 152.001 179.762 153.225 179.762 154.792V161.73H177.345V155.167C177.345 154.115 177.079 153.308 176.553 152.751C176.022 152.183 175.303 151.897 174.387 151.897C173.48 151.897 172.767 152.183 172.241 152.751C171.71 153.308 171.449 154.115 171.449 155.167V161.73H169.012V149.98H171.449Z" fill="white"/>
<path d="M192.612 158.813C193.331 158.105 193.695 157.121 193.695 155.855C193.695 154.579 193.346 153.595 192.654 152.897C191.956 152.188 191.117 151.834 190.133 151.834C189.159 151.834 188.341 152.188 187.674 152.897C187.008 153.595 186.674 154.579 186.674 155.855C186.674 157.136 186.997 158.126 187.654 158.834C188.305 159.532 189.117 159.876 190.091 159.876C191.06 159.876 191.904 159.522 192.612 158.813ZM190.091 161.917C188.383 161.917 186.971 161.365 185.862 160.251C184.747 159.126 184.195 157.662 184.195 155.855C184.195 154.037 184.763 152.574 185.904 151.459C187.055 150.35 188.487 149.792 190.195 149.792C191.904 149.792 193.325 150.35 194.466 151.459C195.601 152.574 196.174 154.032 196.174 155.834C196.174 157.641 195.581 159.105 194.404 160.23C193.237 161.355 191.799 161.917 190.091 161.917Z" fill="white"/>
<path d="M200.728 161.73V145.938H203.165V161.73H200.728Z" fill="white"/>
<path d="M216.117 158.813C216.835 158.105 217.2 157.121 217.2 155.855C217.2 154.579 216.851 153.595 216.158 152.897C215.46 152.188 214.622 151.834 213.637 151.834C212.663 151.834 211.846 152.188 211.179 152.897C210.512 153.595 210.179 154.579 210.179 155.855C210.179 157.136 210.502 158.126 211.158 158.834C211.809 159.532 212.622 159.876 213.596 159.876C214.565 159.876 215.408 159.522 216.117 158.813ZM213.596 161.917C211.887 161.917 210.476 161.365 209.367 160.251C208.252 159.126 207.7 157.662 207.7 155.855C207.7 154.037 208.268 152.574 209.408 151.459C210.559 150.35 211.992 149.792 213.7 149.792C215.408 149.792 216.83 150.35 217.971 151.459C219.106 152.574 219.679 154.032 219.679 155.834C219.679 157.641 219.085 159.105 217.908 160.23C216.742 161.355 215.304 161.917 213.596 161.917Z" fill="white"/>
<path d="M228.961 161.917C227.389 161.917 226.071 161.35 225.003 160.209C223.946 159.058 223.42 157.595 223.42 155.813C223.42 154.022 223.946 152.574 225.003 151.459C226.055 150.35 227.378 149.792 228.961 149.792C229.889 149.792 230.701 150.001 231.399 150.417C232.107 150.834 232.654 151.386 233.045 152.063V149.98H235.482V161.917C235.482 163.568 234.972 164.917 233.961 165.959C232.946 167.011 231.592 167.542 229.899 167.542C228.201 167.542 226.826 167.167 225.774 166.417C224.732 165.667 224.139 164.652 224.003 163.376H226.399C226.592 163.985 226.988 164.48 227.586 164.855C228.196 165.23 228.951 165.417 229.857 165.417C230.774 165.417 231.529 165.115 232.128 164.522C232.738 163.923 233.045 163.053 233.045 161.917V159.542C232.639 160.266 232.092 160.845 231.399 161.272C230.701 161.704 229.889 161.917 228.961 161.917ZM231.982 158.73C232.691 158.011 233.045 157.042 233.045 155.834C233.045 154.626 232.691 153.667 231.982 152.959C231.274 152.251 230.43 151.897 229.461 151.897C228.503 151.897 227.67 152.246 226.961 152.938C226.264 153.636 225.92 154.584 225.92 155.792C225.92 157.001 226.264 157.975 226.961 158.709C227.67 159.449 228.503 159.813 229.461 159.813C230.43 159.813 231.274 159.454 231.982 158.73Z" fill="white"/>
<path d="M243.597 146.876C243.597 147.308 243.441 147.678 243.139 147.98C242.847 148.272 242.477 148.417 242.034 148.417C241.602 148.417 241.232 148.272 240.93 147.98C240.639 147.678 240.493 147.308 240.493 146.876C240.493 146.433 240.639 146.063 240.93 145.772C241.232 145.469 241.602 145.313 242.034 145.313C242.477 145.313 242.847 145.469 243.139 145.772C243.441 146.063 243.597 146.433 243.597 146.876ZM240.826 161.73V149.98H243.264V161.73H240.826Z" fill="white"/>
<path d="M253.528 161.917C251.819 161.917 250.429 161.365 249.361 160.251C248.304 159.141 247.778 157.667 247.778 155.834C247.778 154.001 248.319 152.537 249.403 151.438C250.486 150.345 251.882 149.792 253.59 149.792C255.298 149.792 256.684 150.324 257.757 151.376C258.824 152.433 259.361 153.813 259.361 155.522C259.361 155.938 259.33 156.324 259.278 156.667H250.278C250.33 157.657 250.658 158.438 251.257 159.022C251.866 159.595 252.621 159.876 253.528 159.876C254.861 159.876 255.798 159.329 256.34 158.23H258.944C258.595 159.313 257.949 160.204 257.007 160.897C256.074 161.579 254.913 161.917 253.528 161.917ZM256.819 155.001C256.804 154.042 256.486 153.282 255.861 152.709C255.236 152.126 254.47 151.834 253.569 151.834C252.679 151.834 251.929 152.126 251.319 152.709C250.72 153.282 250.382 154.042 250.298 155.001H256.819Z" fill="white"/>
<path d="M263.341 153.355C263.341 152.355 263.758 151.516 264.591 150.834C265.435 150.141 266.539 149.792 267.904 149.792C269.279 149.792 270.362 150.136 271.154 150.813C271.956 151.48 272.388 152.397 272.445 153.563H269.966C269.925 152.98 269.716 152.532 269.341 152.209C268.977 151.876 268.471 151.709 267.82 151.709C267.164 151.709 266.654 151.855 266.279 152.147C265.914 152.438 265.737 152.824 265.737 153.292C265.737 153.766 265.966 154.141 266.425 154.417C266.893 154.683 267.471 154.886 268.154 155.022C268.831 155.147 269.508 155.303 270.175 155.48C270.852 155.662 271.43 156.001 271.904 156.501C272.373 156.99 272.612 157.641 272.612 158.459C272.612 159.49 272.18 160.324 271.32 160.959C270.456 161.6 269.346 161.917 267.987 161.917C266.638 161.917 265.539 161.595 264.695 160.938C263.862 160.287 263.404 159.355 263.32 158.147H265.841C265.883 158.73 266.091 159.188 266.466 159.522C266.852 159.845 267.383 160.001 268.05 160.001C268.716 160.001 269.242 159.855 269.633 159.563C270.018 159.272 270.216 158.886 270.216 158.397C270.216 157.912 269.977 157.537 269.508 157.272C269.034 157.011 268.456 156.808 267.779 156.667C267.112 156.532 266.435 156.371 265.758 156.188C265.091 156.011 264.518 155.688 264.05 155.23C263.576 154.761 263.341 154.136 263.341 153.355Z" fill="white"/>
</svg>
